<?xml version="1.0" encoding="utf-8"?>
<!-- Generator: Adobe Illustrator 19.2.0, SVG Export Plug-In . SVG Version: 6.00 Build 0)  -->
<svg version="1.1" id="Camada_1" xmlns="http://www.w3.org/2000/svg" xmlns:xlink="http://www.w3.org/1999/xlink" x="0px" y="0px"
	 viewBox="0 0 333.5 201.1" style="enable-background:new 0 0 333.5 201.1;" xml:space="preserve">
<style type="text/css">
	.st0{fill:#204219;}
	.st1{fill:#C6A00E;}
</style>
<path class="st0" d="M132,182.9h2.4v7.2h7.9v-7.2h2.4V200h-2.4v-7.9h-7.9v7.9H132V182.9L132,182.9z M154.2,189.1c-5,0-5,9.4,0,9.4
	C159.2,198.5,159.2,189.1,154.2,189.1L154.2,189.1z M154.1,187.4c8.3,0,8.3,13,0,13C145.9,200.3,145.8,187.4,154.1,187.4
	L154.1,187.4z M166.9,183.8l-2.2,0.8v3.1h-2.6v1.7h2.5c0,4.3-1.6,12.5,5.4,10.6v-1.8c-4.7,1.7-3.1-6.5-3.1-8.8h3v-1.7h-3
	L166.9,183.8L166.9,183.8z M182.8,193.5v0.9h-8.9c0.3,4.4,4.6,5,7.9,3.3v2c-4.8,2-10.1-0.2-10.1-5.9
	C171.7,185.7,182.8,185.1,182.8,193.5L182.8,193.5z M180.7,192.9c-0.3-5.1-6.1-4.9-6.6,0H180.7L180.7,192.9z M178.2,181.7l-2.5,4.3
	h1.3l3.5-4.3H178.2L178.2,181.7z M185.4,187.7h2.3v12.4h-2.3V187.7L185.4,187.7z M185.4,182h2.3v2.3h-2.3V182L185.4,182z M198.7,188
	c-5.7-1.7-11.4,3-4.2,6.5c5.3,2.5,0.2,5-3.5,3.2l-0.1,1.9c0.5,0.2,1.1,0.4,1.6,0.5c6,1.1,9.7-4.4,3.3-7.3c-5.2-2.4-0.6-4.4,2.8-2.8
	L198.7,188z"/>
<path class="st0" d="M16.7,133.5c0.7,1.6,1.5,3.3,2.3,5.2s1.7,3.9,2.8,6.2c1.9,4.3,3.3,7.5,4.3,9.8s1.8,4.3,2.5,6c0.3,0.7,0.6,1,1,1
	c0.3,0,0.6-0.3,0.8-0.8c1.5-3.8,2.8-7.1,4.1-10c1.2-2.9,2.6-6.1,4.1-9.5c1.6-3.8,2.8-6.5,3.6-8.3l1.8-4.4c1.5-3.7,2.8-6.8,3.8-9.3
	s2.1-4.9,3.2-7.3c0.9-1.9,2-3.5,3.1-5c1.1-1.4,2.5-2.5,4.1-3.1l0.2-0.5c-0.6,0-1.5,0.1-2.6,0.1c-2.2,0.2-3.8,0.3-4.9,0.3
	c-2,0-4.4-0.1-7.2-0.4l-0.2,0.5c1.3,0.3,2.1,0.7,2.6,1.4c0.5,0.7,0.8,1.5,0.8,2.5c0,0.7-0.1,1.5-0.3,2.3s-0.5,1.5-0.7,2.3
	c-0.5,1.3-1.1,3.2-2,5.5c-1.4,4-2.7,7.3-3.7,10s-1.9,5.1-2.8,7.3l-1.5,3.6c-2.1,5-3.6,8.7-4.5,11h-0.7c-0.3-0.7-0.7-1.7-1.3-3
	c-2.6-6-4.6-10.6-5.9-13.8l-0.6-1.4c-1.6-3.9-3-7.4-4.2-10.5s-2.4-6.1-3.5-9.1c-0.5-1.4-0.8-2.8-0.8-4.3c0-1.7,0.5-2.9,1.6-3.6
	l-0.3-0.6c-3.3,0.2-5.7,0.3-7.4,0.3c-1.3,0-3.4-0.1-6.3-0.3c-0.3,0-0.7-0.1-1.3-0.1l0.1,0.6c1.8,0.9,3.1,1.9,3.9,3
	c0.8,1.1,1.6,2.4,2.3,4.1l0.2,0.6c0,0,0.2,0.5,0.6,1.2c2.2,4.8,4,8.8,5.4,11.9C14.4,128,15.7,130.9,16.7,133.5z"/>
<path class="st0" d="M70.3,160.3c1.2,0,3.3,0,6.3,0c2.2,0,4.8,0,7.7,0h10.5c1.5,0,2.6-0.2,3.1-0.7c0.5-0.4,0.9-1.1,1.1-1.9v-0.1
	c0.2-0.9,0.9-2.3,2-4.3c0.6-1,1-1.7,1.2-2.2c0.3-0.5,0.4-1,0.4-1.4s-0.2-0.6-0.6-0.6c-0.2,0-0.9,0.6-1.9,1.8c-1.6,1.9-3,3.4-4.1,4.3
	c-1.3,1-2.7,1.7-4.3,2c-1.5,0.3-3.4,0.4-5.5,0.4c-1.4,0-2.8-0.1-4.1-0.2c-1.3-0.2-2.6-0.5-3.8-0.9s-2.2-1.1-3-1.9
	c-0.8-0.8-1.2-1.8-1.3-3.1c-0.2-3.9-0.3-7.2-0.4-9.8c-0.1-2.6-0.1-5.6-0.1-8.8v-0.2c5.3,0,9.1,0.1,11.4,0.3c1.9,0.1,3.5,0.5,5,1
	c1.5,0.6,2.5,1.5,3.2,2.8h0.5c-0.1-1.3-0.1-2.2-0.1-2.7s0-1.3,0-2.5c0-0.7,0-1.4,0.1-2c0-0.6,0.1-1.2,0.2-2c0.1-0.6,0.2-1.3,0.2-1.9
	h-0.5c-1,1.5-2.2,2.5-3.5,3.1c-1.3,0.5-2.8,0.8-4.4,0.9c-0.1,0-0.6,0-1.3,0c-0.5,0-1,0-1.4,0c-0.8,0-2.3,0-4.5,0
	c-2-0.1-3.6-0.1-4.8-0.1c0-5.4,0-9.2,0.1-11.4c0-2.2,0.1-4.3,0.2-6.2l0.1-1.2c0.1-1.7,0.3-2.9,0.5-3.6c0.9,0,2.3-0.1,4.1-0.3
	c2-0.2,3.5-0.3,4.5-0.3c3.5,0,6.2,0.3,8.1,1c1.9,0.7,3.1,1.5,3.8,2.5c0.1,0.2,0.3,0.6,0.5,1c0.3,0.6,0.6,1,0.9,1
	c0.3,0,0.4-0.2,0.4-0.6c0-0.6-0.1-1.5-0.2-2.7c-0.2-1.5-0.3-2.7-0.3-3.7c0-0.6-0.6-1-1.9-1.2c-1.3-0.2-2.9-0.3-4.9-0.3
	c-1.5,0-4,0.1-7.4,0.3l-2,0.1c-1.9,0.1-3.5,0.2-4.8,0.2s-2.3,0.1-3.1,0.1c-0.9,0-2.3-0.1-4.2-0.2s-3.9-0.3-6-0.5l-0.5-0.1l0.1,0.8
	c1.8,0.9,3.1,2,4,3.3c0.8,1.3,1.3,2.6,1.4,4.1c0.2,3.4,0.3,7,0.4,10.7c0.1,3.7,0.1,7.3,0.1,10.8c0,4.2,0,7.5,0,9.8s0,5.2-0.1,8.7
	c0,0.7-0.2,1.4-0.5,2.3c-0.3,0.8-0.7,1.6-1.3,2.4c-0.5,0.8-1.1,1.5-1.7,2.1c-0.6,0.6-1.2,1-1.7,1.3v1.1l0.6-0.1
	c1.7-0.1,3.2-0.3,4.4-0.3C68.3,160.3,69.4,160.3,70.3,160.3z"/>
<path class="st0" d="M112.1,104.3c-1.1,0-2.3,0-3.7-0.1c-1.3-0.1-2.7-0.2-4-0.3v0.6c1.6,0.9,2.7,1.9,3.3,3s0.9,2.5,1,4.2
	c0.2,3.4,0.3,7,0.4,10.7c0.1,3.7,0.1,7.3,0.1,10.8c0,9.3,0,16.2-0.1,20.8c0,1.3-0.5,2.4-1.5,3.5c-1,1-2.1,1.9-3.5,2.6v0.6
	c1.1-0.1,2.4-0.2,3.9-0.2c1.5-0.1,2.9-0.1,4.2-0.1c2.2,0,4.9,0.1,7.9,0.3v-0.6c-1.4-0.6-2.5-1.4-3.1-2.3c-0.6-0.9-1-2.3-1.1-4.2
	c-0.4-5.4-0.6-11.6-0.6-18.4c0.6,0,1.5-0.1,2.6-0.2c1.3-0.1,2.1-0.1,2.6-0.1h3.7c9.1,9.8,18.3,38.7,39,34.4c2.8-0.6,2.9-2.3,1.1-2.1
	c-15.1,0.9-24.2-21.6-31.8-33.4c1.1-0.3,2.2-0.8,3.3-1.5c2.1-1.4,3.7-3.3,4.9-5.7c1.2-2.4,1.8-4.9,1.8-7.5c0-2.5-0.6-4.9-1.7-7.3
	s-2.8-4.2-5.1-5.5c-1.4-0.8-3.1-1.5-5.2-1.9c-2-0.5-3.9-0.7-5.5-0.7c-1.3,0-3.4,0.1-6.1,0.3C116,104.2,113.7,104.3,112.1,104.3
	L112.1,104.3z M115.7,112c0-0.2,0-0.7,0.1-1.4c0-1.7,0.2-2.8,0.6-3.5c0.3,0,0.7-0.1,1.3-0.1c1.5-0.1,2.7-0.2,3.6-0.2
	c1.9,0,3.6,0.1,5.1,0.3c1.5,0.2,2.8,0.7,3.9,1.4c1.6,1.1,2.9,2.6,3.8,4.4c0.9,1.9,1.4,3.8,1.4,5.7c0,4.6-1,7.9-3,10
	s-5.5,3.1-10.6,3.1c-0.4,0-1.3,0-2.8,0c-1.7,0-3,0-3.8,0c0-6.6,0-11,0.1-13c0-1.7,0-3,0.1-4C115.6,113.9,115.6,112.9,115.7,112z"/>
<path class="st0" d="M216.2,111.8l-3.2-8.1h-1.9c-1.3,0-2.8,0-4.4-0.1s-2.9-0.1-4-0.2l0.1,0.5c1.5,1,2.8,2.2,3.8,3.6
	s1.5,2.8,1.5,4.1c0,0.4-0.1,0.8-0.2,1.2L191,153.1c-1.6,3.8-4.1,6.2-7.7,7.3l-0.3,0.4c2-0.3,4.1-0.4,6.2-0.4c1.9,0,3.8,0.1,5.6,0.4
	v-0.4c-0.8-0.8-1.3-1.7-1.3-2.7c0-0.7,0.3-1.8,0.8-3.2l6.2-16c3-0.3,6.2-0.5,9.7-0.5c2.6,0,5.6,0.2,9.2,0.5l5.4,14.7
	c0.1,0.4,0.3,0.8,0.4,1.3s0.2,1,0.2,1.4c0,0.6-0.4,1.5-1.3,2.6c-0.7,0.9-1,1.5-1,1.9v0.4c2.7-0.4,5.5-0.6,8.2-0.6
	c2.6,0,5.1,0.2,7.7,0.6v-0.5c-2.8-1.1-4.9-3.4-6.3-6.9L216.2,111.8L216.2,111.8z M218.1,135.1c-2.6,0.1-5.2,0.2-7.9,0.2
	c-2.6,0-5.2-0.1-7.7-0.2v-0.3l8-19.4h0.2l7.4,19.4V135.1z"/>
<path class="st0" d="M250,104.4c-1.1,0-2.3,0-3.7-0.1c-1.3-0.1-2.7-0.2-4-0.3v0.6c1.6,0.9,2.7,1.9,3.3,3c0.6,1.1,0.9,2.5,1,4.2
	c0.2,3.4,0.3,7,0.4,10.7s0.1,7.3,0.1,10.8c0,9.3,0,16.2-0.1,20.8c0,1.3-0.5,2.4-1.5,3.5c-1,1-2.1,1.9-3.5,2.6v0.6
	c1.1-0.1,2.4-0.2,3.9-0.2c1.5-0.1,2.9-0.1,4.2-0.1c2.2,0,4.9,0.1,7.9,0.3v-0.6c-1.4-0.6-2.5-1.4-3.1-2.3c-0.6-0.9-1-2.3-1.1-4.2
	c-0.4-5.4-0.6-11.6-0.6-18.4c0.6,0,1.5-0.1,2.6-0.2c1.3-0.1,2.1-0.1,2.6-0.1h3.7c9.1,9.8,18.3,38.7,39,34.4c2.8-0.6,2.9-2.3,1.1-2.1
	c-15.1,0.9-24.2-21.6-31.8-33.4c1.1-0.3,2.2-0.8,3.3-1.5c2.1-1.4,3.7-3.3,4.9-5.7c1.2-2.4,1.8-4.9,1.8-7.5c0-2.5-0.6-4.9-1.7-7.3
	c-1.1-2.4-2.8-4.2-5.1-5.5c-1.4-0.8-3.1-1.5-5.2-1.9c-2-0.5-3.9-0.7-5.5-0.7c-1.3,0-3.4,0.1-6.1,0.3
	C253.9,104.3,251.6,104.4,250,104.4L250,104.4z M253.6,112.1c0-0.2,0-0.7,0.1-1.4c0-1.7,0.2-2.8,0.6-3.5c0.3,0,0.7-0.1,1.3-0.1
	c1.5-0.1,2.7-0.2,3.6-0.2c1.9,0,3.6,0.1,5.1,0.3c1.5,0.2,2.8,0.7,3.9,1.4c1.6,1.1,2.9,2.6,3.8,4.4c0.9,1.9,1.4,3.8,1.4,5.7
	c0,4.6-1,7.9-3,10s-5.5,3.1-10.6,3.1c-0.4,0-1.3,0-2.8,0c-1.7,0-3,0-3.8,0c0-6.6,0-11,0.1-13c0-1.7,0-3,0.1-4
	C253.5,113.9,253.5,113,253.6,112.1z"/>
<path class="st0" d="M301.2,160.1c1.2,0,3.3,0,6.3,0c2.2,0,4.8,0,7.7,0h10.5c1.5,0,2.6-0.2,3.1-0.7c0.5-0.4,0.9-1.1,1.1-1.9v-0.1
	c0.2-0.9,0.9-2.3,2-4.3c0.6-1,1-1.7,1.2-2.2c0.3-0.5,0.4-1,0.4-1.4s-0.2-0.6-0.6-0.6c-0.2,0-0.9,0.6-1.9,1.8c-1.6,1.9-3,3.4-4.1,4.3
	c-1.3,1-2.7,1.7-4.3,2c-1.5,0.3-3.4,0.4-5.5,0.4c-1.4,0-2.8-0.1-4.1-0.2c-1.3-0.2-2.6-0.5-3.8-0.9s-2.2-1.1-3-1.9
	c-0.8-0.8-1.2-1.8-1.3-3.1c-0.2-3.9-0.3-7.2-0.4-9.8c-0.1-2.6-0.1-5.6-0.1-8.8v-0.2c5.3,0,9.1,0.1,11.4,0.3c1.9,0.1,3.5,0.5,5,1
	c1.5,0.6,2.5,1.5,3.2,2.8h0.5c-0.1-1.3-0.1-2.2-0.1-2.7s0-1.3,0-2.5c0-0.7,0-1.4,0.1-2c0-0.6,0.1-1.2,0.2-2c0.1-0.6,0.2-1.3,0.2-1.9
	h-0.5c-1,1.5-2.2,2.5-3.5,3.1c-1.3,0.5-2.8,0.8-4.4,0.9c-0.1,0-0.6,0-1.3,0c-0.5,0-1,0-1.4,0c-0.8,0-2.3,0-4.5,0
	c-2-0.1-3.6-0.1-4.8-0.1c0-5.4,0-9.2,0.1-11.4c0-2.2,0.1-4.3,0.2-6.2l0.1-1.2c0.1-1.7,0.3-2.9,0.5-3.6c0.9,0,2.3-0.1,4.1-0.3
	c2-0.2,3.5-0.3,4.5-0.3c3.5,0,6.2,0.3,8.1,1c1.9,0.7,3.1,1.5,3.8,2.5c0.1,0.2,0.3,0.6,0.5,1c0.3,0.6,0.6,1,0.9,1s0.4-0.2,0.4-0.6
	c0-0.6-0.1-1.5-0.2-2.7c-0.2-1.5-0.3-2.7-0.3-3.7c0-0.6-0.6-1-1.9-1.2s-2.9-0.3-4.9-0.3c-1.5,0-4,0.1-7.4,0.3l-2,0.1
	c-1.9,0.1-3.5,0.2-4.8,0.2s-2.3,0.1-3.1,0.1c-0.9,0-2.3-0.1-4.2-0.2s-3.9-0.3-6-0.5l-0.5-0.1l0.1,0.8c1.8,0.9,3.1,2,4,3.3
	c0.8,1.3,1.3,2.6,1.4,4.1c0.2,3.4,0.3,7,0.4,10.7c0.1,3.7,0.1,7.3,0.1,10.8c0,4.2,0,7.5,0,9.8s0,5.2-0.1,8.7c0,0.7-0.2,1.4-0.5,2.3
	c-0.3,0.8-0.7,1.6-1.3,2.4c-0.5,0.8-1.1,1.5-1.7,2.1c-0.6,0.6-1.2,1-1.7,1.3v1.1l0.6-0.1c1.7-0.1,3.2-0.3,4.4-0.3
	C299.2,160.1,300.3,160.1,301.2,160.1z"/>
<path class="st0" d="M167,161.2c3,0,5.6-0.4,7.9-1.3c2.3-0.9,4.2-2.1,5.7-3.6s2.6-3.3,3.4-5.2c0.7-2,1.1-4,1.1-6.1
	c0-1.9-0.4-3.6-1.2-5.3c-0.7-1.6-1.7-3.1-3-4.5c-1.2-1.4-2.5-2.6-3.9-3.6c-1.4-1.1-3.2-2.4-5.3-3.9c-2-1.4-3.6-2.6-4.7-3.4
	s-2.2-1.8-3.2-2.9s-1.8-2.2-2.4-3.4c-0.6-1.2-0.9-2.5-0.9-3.8c0-1,0.3-2,0.8-2.9s1.2-1.8,2-2.5s1.8-1.3,2.8-1.7
	c1-0.4,2.1-0.6,3.1-0.6c1.6,0,3.3,0.3,5.1,0.8c1.8,0.5,3.3,1.3,4.6,2.4c0.4,0.4,0.8,0.8,1.2,1.4c0.4,0.6,0.8,1.2,1.2,2.1
	c0.8,1.5,1.3,2.2,1.7,2.2c0.1,0,0.3-0.1,0.4-0.4s0.2-0.5,0.2-0.8c0-1.1-0.1-2.6-0.3-4.7c-0.2-2.2-0.3-3.8-0.3-5
	c0-0.4-0.1-0.6-0.4-0.6c-0.5,0-1.1,0.1-1.8,0.4c-0.6,0.2-1.1,0.3-1.5,0.3c-1,0-2.5-0.2-4.5-0.6s-3.6-0.6-4.5-0.6
	c-2.5,0-4.6,0.4-6.6,1.2c-1.9,0.8-3.5,1.9-4.7,3.3s-2.1,2.9-2.8,4.6c-0.6,1.7-0.9,3.4-0.9,5.2c0,1.7,0.3,3.3,1,4.8s1.6,2.8,2.7,4
	s2.4,2.3,3.7,3.3c1.3,1,3,2.2,5,3.5c1.9,1.3,3.5,2.4,4.7,3.3c1.3,0.9,2.4,2,3.5,3.1s1.9,2.4,2.5,3.7s0.9,2.8,0.9,4.3
	c0,1.6-0.3,3-1,4.3s-1.6,2.3-2.6,3.2c-1.1,0.8-2.3,1.5-3.6,1.9c-1.3,0.4-2.6,0.7-3.8,0.7c-1.6,0-3.6-0.5-5.8-1.5
	c-2.3-1-3.9-2.1-5.1-3.5c-0.6-0.7-1.1-1.5-1.5-2.3s-0.7-1.7-1-2.6c-0.3-0.8-0.5-1.2-0.6-1.2c-0.4,0-0.7,0.3-0.9,0.8
	c-0.2,0.5-0.3,1.1-0.3,1.6c0,0.7,0,1.5,0.1,2.3s0.2,1.6,0.3,2.5l0.1,0.6c0,1.2,0.1,2.2,0.4,2.9s0.8,1.1,1.7,1.4c0,0,0.7,0.2,1.8,0.5
	c2,0.6,3.7,1,5,1.3C163.9,161.1,165.4,161.2,167,161.2z"/>
<polygon class="st1" points="0,167.7 140.7,167.7 146.2,172.1 0,172.1 "/>
<rect x="307.4" y="167.7" class="st1" width="25.8" height="4.3"/>
<polygon class="st1" points="170.5,167.7 279.4,167.7 284.9,172.1 170.5,172.1 "/>
<path class="st1" d="M180.8,9.4c5-0.5,12.6,0.7,17.9,6.1c5.4,5.5,6.7,13.8,3.6,20.9c-0.8,1.8-3.6,6-7,8.1c1.7,6.4,0.9,13.6-2.2,18.1
	c-3.9,5.6-7.7,8.5-14.4,10.6c6.6,5,29.2,21.1,5.6,21.6c-5.5,0.1-15.3-1.6-19.7-3.7c26.9,2.1,17.7-6.9,5.3-14.4
	c-6.8-4.1-12.4-7.1-19.2-11.6c5.9,11.2,2.8,25.4-5,29.6h-11.5c-0.8-0.4,0.1-0.7,0.2-0.8c12.1-5.1,18.8-24.2,8.3-34.3
	c-5.9-4.8-11.4-12.1-11.5-19.7c-0.1-4.4,1.8-12.8,7.7-18.8c1.5-5.9,5.9-14.5,13-18.3c7.7-4.1,18.1-3.9,24.9,1.8
	C177.5,5.3,179.2,6.8,180.8,9.4L180.8,9.4z M195,43.6c5.7-5.7,6.6-14,4.7-19.4c-1.9-5.5-8.9-11.4-16.8-9.8c0.9,3.1,1.3,7,0.7,11.8
	c0.1,0.5-0.4,0.5-0.4,0.1c-0.5-9.3-1.7-11.9-4.4-15.5c-4-5.2-9.6-7.4-16.9-7c-6,0.3-13.2,4.9-15.3,12.2c9.4-3.7,21.4-1.1,28.1,6.8
	c1.5,1.7,1.4,2.3-0.6,0.7c-6.4-5.1-13.9-5.3-17-5.1c-14,0.8-19.7,12.4-20.3,18.2c-1.2,11.2,7.4,17.9,15.1,22
	c-2.7-4.3-4.7-13.8,0-21.3c3.8-6.1,10.9-10.2,20.6-9.6c0.9,0.1,0.9,0.4,0.4,0.5c-10.2,2.1-14.6,7.2-16.7,11.2
	c-4.3,8.4-0.7,18.1,4,22.3c2.7,2.4,5.3,4,8.9,5.1c6.4,2,15.3-0.9,20.1-6.8c4.4-5.5,6.3-16.4-0.2-25.3c-0.1-0.2,0-0.4,0.5,0.1
	C192.1,37,194,40.1,195,43.6z"/>
</svg>
