<?xml version="1.0" encoding="utf-8"?>
<!-- Generator: Adobe Illustrator 19.2.0, SVG Export Plug-In . SVG Version: 6.00 Build 0)  -->
<svg version="1.1" id="Camada_1" xmlns="http://www.w3.org/2000/svg" xmlns:xlink="http://www.w3.org/1999/xlink" x="0px" y="0px"
	 viewBox="0 0 160.1 113.1" style="enable-background:new 0 0 160.1 113.1;" xml:space="preserve" width="140px">
<style type="text/css">
	.st0{fill-rule:evenodd;clip-rule:evenodd;fill:#BD9217;}
	.st1{fill-rule:evenodd;clip-rule:evenodd;fill:#89171A;}
	.st2{fill-rule:evenodd;clip-rule:evenodd;fill:none;stroke:#FFFFFF;stroke-width:1.4434;stroke-miterlimit:7.6613;}
	.st3{fill-rule:evenodd;clip-rule:evenodd;fill:#FFFFFF;}
</style>
<g>
	<path class="st0" d="M53,10.7v32.8c0,7.1,3.5,10.7,10.6,10.7h32.9c7.1,0,10.6-3.6,10.6-10.7V10.7c0-7.1-3.5-10.7-10.6-10.7H63.6
		C56.5,0,53,3.6,53,10.7z"/>
	<path class="st1" d="M55.9,10.9v32.4c0,5.3,2.7,7.9,7.9,7.9h32.5c5.2,0,7.9-2.6,7.9-7.9V10.9c0-5.3-2.7-7.9-7.9-7.9H63.8
		C58.6,3,55.9,5.6,55.9,10.9z"/>
	<path class="st2" d="M55.9,10.9v32.4c0,5.3,2.7,7.9,7.9,7.9h32.5c5.2,0,7.9-2.6,7.9-7.9V10.9c0-5.3-2.7-7.9-7.9-7.9H63.8
		C58.6,3,55.9,5.6,55.9,10.9z"/>
	<path class="st3" d="M85.4,12.5v19.3c3.3-1.9,5.7-5.5,5.7-9.6C91.1,18,88.7,14.4,85.4,12.5z M85.4,12.5L85.4,12.5L85.4,12.5z
		 M77.2,27.4h1.7L78,33c0.6,0.1,1.3,0.2,1.9,0.2v-9.9h1.8v9.8v3v10h-1.8v-9.9c-0.8,0-1.6-0.1-2.4-0.2l-1.6,10.1h-1.7L77.2,27.4z
		 M77.2,27.4L77.2,27.4L77.2,27.4z M75,35.2l0.5-3c-3.8-1.8-6.5-5.6-6.5-10c0-6.1,5-11.1,11-11.1c0.2,0,0.3,0.1,0.4,0.1V8.1
		c-0.1,0-0.2,0-0.4,0c-7.7,0-14,6.3-14,14.1C66,28.1,69.7,33.2,75,35.2z M75,35.2L75,35.2L75,35.2z M82.7,32.9V11.4V8.3
		c6.4,1.3,11.4,7,11.4,13.9c0,5.8-3.6,10.9-8.7,13v10.9h-2.7V36V32.9z"/>
	<path class="st1" d="M14.9,80.7c0,0.3,0,0.5,0,0.7c-0.1,0.2-0.1,0.4-0.1,0.5c0,0.1-0.1,0.2-0.1,0.3c-0.1,0.1-0.2,0.2-0.3,0.4
		c-0.1,0.1-0.3,0.2-0.6,0.4c-0.4,0.2-0.8,0.4-1.2,0.6c-0.5,0.1-1,0.3-1.7,0.4c-0.6,0.1-1.2,0.2-1.9,0.2c-1.4,0-2.7-0.3-3.8-0.7
		c-1.1-0.4-2-1.1-2.8-1.9c-0.8-0.9-1.4-1.9-1.8-3.2C0.2,77.1,0,75.6,0,73.9c0-1.8,0.2-3.3,0.7-4.7c0.4-1.3,1.1-2.4,1.9-3.4
		c0.8-0.9,1.8-1.6,2.9-2c1.2-0.5,2.4-0.7,3.8-0.7c0.6,0,1.1,0,1.6,0.1c0.6,0.1,1.1,0.2,1.5,0.4c0.4,0.1,0.8,0.3,1.2,0.5
		c0.3,0.2,0.6,0.4,0.7,0.5c0.2,0.1,0.3,0.3,0.3,0.4c0,0,0.1,0.2,0.1,0.3c0.1,0.2,0.1,0.3,0.1,0.5c0,0.2,0,0.5,0,0.8
		c0,0.3,0,0.6,0,0.8c0,0.2-0.1,0.4-0.1,0.5c-0.1,0.2-0.1,0.3-0.2,0.3c-0.1,0.1-0.2,0.1-0.2,0.1c-0.2,0-0.4-0.1-0.6-0.3
		c-0.3-0.2-0.6-0.4-1-0.6c-0.3-0.2-0.8-0.4-1.3-0.6c-0.5-0.2-1.2-0.3-1.9-0.3c-0.8,0-1.5,0.2-2.1,0.5c-0.7,0.4-1.2,0.8-1.7,1.4
		c-0.4,0.7-0.7,1.4-0.9,2.3c-0.3,0.9-0.4,1.9-0.4,3c0,1.2,0.1,2.2,0.4,3.1c0.2,0.9,0.6,1.6,1,2.2c0.5,0.5,1,1,1.6,1.2
		c0.7,0.3,1.4,0.5,2.2,0.5c0.7,0,1.4-0.2,1.9-0.3c0.5-0.2,1-0.4,1.4-0.6c0.3-0.2,0.6-0.4,0.9-0.6c0.2-0.1,0.4-0.2,0.6-0.2
		c0.1,0,0.1,0,0.2,0c0.1,0.1,0.1,0.2,0.2,0.3c0,0.1,0,0.3,0,0.5C14.9,80.1,14.9,80.3,14.9,80.7z M14.9,80.7L14.9,80.7L14.9,80.7z
		 M33.5,76.2c0,1.3-0.2,2.4-0.6,3.4c-0.3,1-0.9,1.8-1.6,2.5c-0.7,0.7-1.6,1.2-2.6,1.6c-1.1,0.3-2.3,0.5-3.6,0.5s-2.4-0.2-3.4-0.5
		c-1-0.3-1.9-0.8-2.6-1.5c-0.7-0.6-1.2-1.4-1.6-2.4c-0.4-1-0.5-2.1-0.5-3.4V63.9c0,0,0-0.2,0.1-0.2c0-0.1,0.1-0.2,0.3-0.2
		c0.2-0.1,0.4-0.1,0.6-0.2c0.3,0,0.6,0,1,0c0.4,0,0.8,0,1,0c0.3,0.1,0.5,0.1,0.6,0.2c0.2,0,0.3,0.1,0.4,0.2l0.1,0.2V76
		c0,0.8,0.1,1.5,0.3,2.1c0.2,0.6,0.4,1.1,0.8,1.5c0.4,0.4,0.8,0.7,1.3,0.9c0.6,0.2,1.1,0.3,1.8,0.3c0.6,0,1.2-0.1,1.7-0.3
		c0.5-0.2,0.9-0.5,1.3-0.9c0.3-0.4,0.6-0.8,0.8-1.4c0.2-0.6,0.3-1.2,0.3-1.9V63.9c0,0,0-0.2,0.1-0.2c0.1-0.1,0.2-0.2,0.3-0.2
		c0.2-0.1,0.4-0.1,0.7-0.2c0.2,0,0.6,0,1,0c0.4,0,0.7,0,0.9,0c0.3,0.1,0.5,0.1,0.6,0.2c0.2,0,0.3,0.1,0.4,0.2l0.1,0.2V76.2z
		 M33.5,76.2L33.5,76.2L33.5,76.2z M51.9,83.3c0,0.1,0,0.2,0,0.3c-0.1,0.1-0.2,0.1-0.3,0.2c-0.2,0-0.4,0.1-0.7,0.1
		c-0.3,0-0.7,0-1.2,0c-0.5,0-0.8,0-1.1,0c-0.2,0-0.4-0.1-0.6-0.1c-0.2-0.1-0.2-0.2-0.3-0.2c-0.1-0.1-0.1-0.2-0.2-0.4l-1.8-4.5
		c-0.2-0.5-0.4-1-0.6-1.4c-0.2-0.4-0.5-0.7-0.7-1c-0.3-0.3-0.6-0.5-0.9-0.6c-0.3-0.1-0.7-0.2-1.2-0.2h-1.2v7.8
		c0,0.1-0.1,0.2-0.1,0.3c-0.1,0-0.2,0.1-0.4,0.2c-0.1,0-0.3,0.1-0.6,0.1c-0.2,0-0.6,0-1,0c-0.4,0-0.7,0-1,0c-0.2,0-0.4-0.1-0.6-0.1
		c-0.2-0.1-0.3-0.2-0.3-0.2C37,83.5,37,83.4,37,83.3V64.7c0-0.5,0.1-0.8,0.3-1c0.3-0.2,0.6-0.3,0.9-0.3h5.2c0.6,0,1,0,1.3,0
		c0.4,0,0.7,0.1,1,0.1c0.8,0.1,1.5,0.3,2.1,0.6c0.7,0.3,1.2,0.6,1.7,1.1c0.4,0.5,0.8,1,1,1.6c0.3,0.7,0.4,1.4,0.4,2.2
		c0,0.7-0.1,1.3-0.3,1.9c-0.1,0.5-0.4,1-0.7,1.5c-0.4,0.4-0.8,0.8-1.3,1.1c-0.4,0.4-1,0.6-1.6,0.8c0.3,0.2,0.6,0.4,0.8,0.6
		c0.3,0.2,0.6,0.4,0.8,0.7c0.2,0.3,0.4,0.7,0.6,1.1c0.3,0.4,0.5,0.8,0.7,1.3l1.7,4c0.1,0.4,0.2,0.7,0.3,0.9
		C51.9,83,51.9,83.2,51.9,83.3z M51.9,83.3L51.9,83.3L51.9,83.3z M46.7,69.4c0-0.7-0.2-1.2-0.5-1.7c-0.3-0.4-0.8-0.8-1.5-1
		c-0.2,0-0.4-0.1-0.7-0.1c-0.2,0-0.6-0.1-1.1-0.1h-1.8v5.9h2.1c0.6,0,1-0.1,1.5-0.3c0.4-0.1,0.8-0.3,1.1-0.6
		c0.3-0.2,0.5-0.5,0.6-0.9C46.6,70.3,46.7,69.9,46.7,69.4z M46.7,69.4L46.7,69.4L46.7,69.4z M58.2,83.3c0,0.1,0,0.2-0.1,0.3
		c-0.1,0-0.2,0.1-0.3,0.2c-0.2,0-0.4,0.1-0.7,0.1c-0.2,0-0.6,0-1,0c-0.3,0-0.7,0-0.9,0c-0.3,0-0.5-0.1-0.7-0.1
		c-0.1-0.1-0.3-0.2-0.3-0.2c-0.1-0.1-0.1-0.2-0.1-0.3V63.9c0,0,0-0.2,0.1-0.2c0-0.1,0.2-0.2,0.3-0.2c0.2-0.1,0.4-0.1,0.7-0.2
		c0.2,0,0.6,0,0.9,0c0.4,0,0.8,0,1,0c0.3,0.1,0.5,0.1,0.7,0.2c0.1,0,0.2,0.1,0.3,0.2c0.1,0,0.1,0.2,0.1,0.2V83.3z"/>
	<path class="st1" d="M82.7,69.6c0,1.1-0.2,2.2-0.5,3c-0.4,0.9-0.9,1.7-1.6,2.3c-0.6,0.6-1.5,1.1-2.4,1.4c-1,0.3-2.2,0.4-3.5,0.4H73
		v6.6c0,0.1,0,0.2-0.1,0.3c-0.1,0-0.2,0.1-0.3,0.2c-0.2,0-0.4,0.1-0.6,0.1c-0.3,0-0.6,0-1,0c-0.4,0-0.8,0-1,0
		c-0.3,0-0.5-0.1-0.7-0.1c-0.1-0.1-0.2-0.2-0.3-0.2c0-0.1-0.1-0.2-0.1-0.3V64.9c0-0.5,0.1-0.9,0.4-1.2c0.3-0.2,0.6-0.3,1-0.3h4.8
		c0.4,0,0.9,0,1.3,0c0.4,0.1,1,0.1,1.6,0.3c0.6,0.1,1.2,0.3,1.8,0.6c0.6,0.4,1.2,0.8,1.6,1.3c0.4,0.5,0.7,1.1,1,1.7
		C82.6,68,82.7,68.8,82.7,69.6z M82.7,69.6L82.7,69.6L82.7,69.6z M78.4,69.9c0-0.7-0.1-1.3-0.3-1.8c-0.3-0.5-0.6-0.8-0.9-1
		c-0.4-0.2-0.8-0.4-1.2-0.4c-0.4-0.1-0.8-0.1-1.2-0.1H73v6.9h1.9c0.6,0,1.1-0.1,1.6-0.3c0.4-0.1,0.8-0.4,1.1-0.7
		c0.3-0.3,0.5-0.7,0.6-1.2C78.4,70.9,78.4,70.4,78.4,69.9z M78.4,69.9L78.4,69.9L78.4,69.9z M99.4,82.3l-6.2-18.1
		c-0.1-0.3-0.1-0.4-0.2-0.5c-0.1-0.1-0.3-0.2-0.5-0.3c-0.2,0-0.5-0.1-0.9-0.1c-0.3,0-0.8,0-1.4,0c-0.5,0-1,0-1.3,0
		c-0.3,0-0.6,0.1-0.7,0.1c-0.2,0.1-0.4,0.2-0.4,0.3c-0.1,0.1-0.2,0.2-0.3,0.4l-6.2,18.1c-0.1,0.4-0.2,0.7-0.2,1c0,0.2,0,0.3,0.1,0.5
		c0.1,0.1,0.3,0.2,0.5,0.2c0.3,0,0.7,0,1.2,0c0.4,0,0.8,0,1.1,0c0.2,0,0.4-0.1,0.6-0.1c0.2-0.1,0.3-0.2,0.3-0.2
		c0.1-0.2,0.1-0.3,0.2-0.4l1.3-4H94l1.3,4.1c0.1,0.1,0.1,0.2,0.2,0.3c0.1,0.1,0.2,0.2,0.3,0.2c0.1,0.1,0.4,0.1,0.7,0.1
		c0.3,0,0.7,0,1.2,0s0.9,0,1.2,0c0.3,0,0.5-0.1,0.6-0.2c0.1-0.1,0.2-0.3,0.2-0.5C99.6,83,99.5,82.7,99.4,82.3z M99.4,82.3L99.4,82.3
		L99.4,82.3z M90.1,67.3L93,76h-5.7L90.1,67.3L90.1,67.3z M90.1,67.3L90.1,67.3L90.1,67.3z M112.5,82.1c0,0.3-0.1,0.6-0.1,0.8
		c0,0.2,0,0.4-0.1,0.5c-0.1,0.2-0.1,0.3-0.2,0.4c-0.1,0-0.2,0-0.3,0h-9.2c-0.3,0-0.6-0.1-0.9-0.3c-0.2-0.2-0.3-0.5-0.3-1V63.9
		c0,0,0-0.2,0.1-0.2c0.1-0.1,0.2-0.2,0.3-0.2c0.2-0.1,0.4-0.1,0.7-0.2c0.2,0,0.6,0,0.9,0c0.5,0,0.8,0,1.1,0c0.2,0.1,0.4,0.1,0.5,0.2
		c0.2,0,0.3,0.1,0.4,0.2c0.1,0,0.1,0.2,0.1,0.2v16.5h6.3c0.1,0,0.2,0,0.3,0.1c0.1,0,0.1,0.2,0.2,0.3c0.1,0.1,0.1,0.3,0.1,0.5
		C112.4,81.5,112.5,81.8,112.5,82.1z M112.5,82.1L112.5,82.1L112.5,82.1z M130.5,82.3l-6.2-18.1c-0.1-0.3-0.1-0.4-0.2-0.5
		c-0.1-0.1-0.3-0.2-0.5-0.3c-0.2,0-0.4-0.1-0.8-0.1c-0.4,0-0.9,0-1.5,0c-0.5,0-0.9,0-1.3,0c-0.3,0-0.5,0.1-0.7,0.1
		c-0.2,0.1-0.3,0.2-0.4,0.3c-0.1,0.1-0.2,0.2-0.2,0.4l-6.2,18.1c-0.2,0.4-0.2,0.7-0.3,1c0,0.2,0,0.3,0.1,0.5
		c0.1,0.1,0.3,0.2,0.6,0.2c0.3,0,0.7,0,1.1,0c0.5,0,0.8,0,1.1,0c0.3,0,0.5-0.1,0.6-0.1c0.2-0.1,0.3-0.2,0.4-0.2
		c0-0.2,0.1-0.3,0.1-0.4l1.3-4h7.6l1.3,4.1c0.1,0.1,0.1,0.2,0.2,0.3c0,0.1,0.2,0.2,0.3,0.2c0.2,0.1,0.4,0.1,0.7,0.1
		c0.3,0,0.7,0,1.2,0c0.5,0,0.9,0,1.2,0s0.5-0.1,0.6-0.2c0.2-0.1,0.2-0.3,0.2-0.5C130.7,83,130.6,82.7,130.5,82.3z M130.5,82.3
		L130.5,82.3L130.5,82.3z M121.3,67.3l2.8,8.7h-5.7L121.3,67.3L121.3,67.3z M121.3,67.3L121.3,67.3L121.3,67.3z M146.1,80.7
		c0,0.3,0,0.5,0,0.7c0,0.2-0.1,0.4-0.1,0.5c0,0.1-0.1,0.2-0.1,0.3c-0.1,0.1-0.1,0.2-0.3,0.4c-0.1,0.1-0.3,0.2-0.6,0.4
		c-0.4,0.2-0.8,0.4-1.2,0.6c-0.5,0.1-1.1,0.3-1.6,0.4c-0.7,0.1-1.3,0.2-2,0.2c-1.4,0-2.6-0.3-3.8-0.7c-1.1-0.4-2-1.1-2.8-1.9
		c-0.8-0.9-1.4-1.9-1.8-3.2c-0.4-1.3-0.6-2.8-0.6-4.5c0-1.8,0.2-3.3,0.6-4.7c0.5-1.3,1.1-2.4,2-3.4c0.8-0.9,1.8-1.6,2.9-2
		c1.2-0.5,2.4-0.7,3.8-0.7c0.6,0,1.1,0,1.7,0.1c0.5,0.1,0.9,0.2,1.4,0.4c0.5,0.1,0.8,0.3,1.2,0.5c0.3,0.2,0.6,0.4,0.7,0.5
		c0.2,0.1,0.3,0.3,0.3,0.4c0.1,0,0.1,0.2,0.2,0.3c0,0.2,0,0.3,0,0.5c0,0.2,0,0.5,0,0.8c0,0.3,0,0.6,0,0.8c0,0.2,0,0.4-0.1,0.5
		c-0.1,0.2-0.1,0.3-0.2,0.3c-0.1,0.1-0.1,0.1-0.2,0.1c-0.2,0-0.4-0.1-0.6-0.3c-0.3-0.2-0.6-0.4-1-0.6c-0.3-0.2-0.8-0.4-1.3-0.6
		c-0.5-0.2-1.2-0.3-1.9-0.3c-0.8,0-1.5,0.2-2.1,0.5c-0.7,0.4-1.2,0.8-1.7,1.4c-0.4,0.7-0.7,1.4-1,2.3c-0.2,0.9-0.3,1.9-0.3,3
		c0,1.2,0.1,2.2,0.3,3.1c0.3,0.9,0.6,1.6,1.1,2.2c0.5,0.5,1,1,1.7,1.2c0.6,0.3,1.3,0.5,2.1,0.5c0.8,0,1.4-0.2,1.9-0.3
		c0.5-0.2,1-0.4,1.4-0.6c0.3-0.2,0.7-0.4,0.9-0.6c0.2-0.1,0.4-0.2,0.6-0.2c0.1,0,0.2,0,0.2,0c0.1,0.1,0.1,0.2,0.2,0.3
		c0,0.1,0,0.3,0.1,0.5C146.1,80.1,146.1,80.3,146.1,80.7z M146.1,80.7L146.1,80.7L146.1,80.7z M160.1,82.2c0,0.3,0,0.6,0,0.8
		c0,0.2-0.1,0.4-0.1,0.5c-0.1,0.1-0.1,0.2-0.2,0.3c-0.1,0-0.2,0-0.3,0h-10.1c-0.3,0-0.6-0.1-0.9-0.3c-0.2-0.2-0.3-0.5-0.3-1V64.7
		c0-0.5,0.1-0.8,0.3-1c0.3-0.2,0.6-0.3,0.9-0.3h10.1c0.1,0,0.1,0,0.2,0.1c0.1,0,0.1,0.1,0.2,0.2c0.1,0.2,0.1,0.3,0.1,0.5
		c0,0.2,0.1,0.5,0.1,0.8c0,0.3-0.1,0.6-0.1,0.8c0,0.2,0,0.3-0.1,0.5c-0.1,0.1-0.1,0.2-0.2,0.2c-0.1,0.1-0.1,0.1-0.2,0.1h-7.2v5h6.1
		c0.1,0,0.1,0,0.2,0.1c0.1,0.1,0.2,0.1,0.2,0.3c0.1,0.1,0.1,0.3,0.1,0.5c0.1,0.2,0.1,0.4,0.1,0.7c0,0.3,0,0.6-0.1,0.8
		c0,0.2,0,0.4-0.1,0.5c0,0.1-0.1,0.2-0.2,0.2c-0.1,0.1-0.1,0.1-0.2,0.1h-6.1v5.8h7.2c0.1,0,0.2,0,0.3,0.1c0.1,0,0.1,0.1,0.2,0.2
		c0,0.2,0.1,0.3,0.1,0.6C160.1,81.7,160.1,81.9,160.1,82.2z"/>
	<path class="st1" d="M51.6,112.5c0,0.1,0,0.1-0.1,0.2c0,0-0.1,0-0.2,0.1c-0.1,0-0.3,0-0.4,0.1c-0.2,0-0.4,0-0.7,0
		c-0.3,0-0.5,0-0.7,0c-0.2-0.1-0.4-0.1-0.4-0.1c-0.2-0.1-0.2-0.1-0.3-0.1c0-0.1,0-0.1,0-0.2v-5.1h-5.3v5.1c0,0.1,0,0.1-0.1,0.2
		c0,0-0.1,0-0.2,0.1c-0.1,0-0.2,0-0.4,0.1c-0.2,0-0.4,0-0.7,0c-0.3,0-0.5,0-0.7,0c-0.2-0.1-0.3-0.1-0.4-0.1
		c-0.2-0.1-0.2-0.1-0.3-0.1c0-0.1,0-0.1,0-0.2v-11.9c0-0.1,0-0.1,0-0.2c0.1,0,0.1-0.1,0.3-0.1c0.1,0,0.2-0.1,0.4-0.1
		c0.2,0,0.4,0,0.7,0c0.3,0,0.5,0,0.7,0c0.2,0,0.3,0.1,0.4,0.1c0.1,0,0.2,0.1,0.2,0.1c0.1,0.1,0.1,0.1,0.1,0.2v4.6h5.3v-4.6
		c0-0.1,0-0.1,0-0.2c0.1,0,0.1-0.1,0.3-0.1c0,0,0.2-0.1,0.4-0.1c0.2,0,0.4,0,0.7,0c0.3,0,0.5,0,0.7,0c0.1,0,0.3,0.1,0.4,0.1
		c0.1,0,0.2,0.1,0.2,0.1c0.1,0.1,0.1,0.1,0.1,0.2V112.5z M51.6,112.5L51.6,112.5L51.6,112.5z M72.2,106.4c0,1-0.1,2-0.4,2.8
		c-0.3,0.8-0.8,1.5-1.3,2.1c-0.6,0.6-1.3,1-2.1,1.3c-0.9,0.3-1.9,0.5-3,0.5c-1.1,0-2-0.2-2.8-0.4c-0.8-0.3-1.5-0.7-2.1-1.2
		c-0.5-0.5-0.9-1.2-1.2-2c-0.3-0.8-0.4-1.8-0.4-2.9c0-1,0.1-1.9,0.4-2.7c0.3-0.8,0.7-1.5,1.3-2.1c0.6-0.6,1.3-1,2.2-1.3
		c0.8-0.3,1.8-0.5,2.9-0.5c1.1,0,2,0.2,2.8,0.4c0.8,0.3,1.5,0.6,2,1.2c0.6,0.5,1,1.2,1.3,2C72.1,104.4,72.2,105.3,72.2,106.4z
		 M72.2,106.4L72.2,106.4L72.2,106.4z M69.2,106.5c0-0.6-0.1-1.2-0.2-1.8c-0.1-0.5-0.3-1-0.5-1.4c-0.3-0.4-0.7-0.6-1.2-0.8
		c-0.4-0.3-1-0.4-1.7-0.4c-0.7,0-1.3,0.2-1.8,0.4c-0.4,0.2-0.8,0.5-1.1,0.9c-0.3,0.4-0.5,0.9-0.6,1.4c-0.1,0.6-0.2,1.1-0.2,1.7
		c0,0.7,0.1,1.3,0.2,1.9c0.1,0.5,0.3,1,0.6,1.4c0.2,0.3,0.6,0.7,1.1,0.9c0.4,0.1,1,0.3,1.7,0.3c0.7,0,1.3-0.2,1.8-0.4
		c0.4-0.2,0.8-0.5,1.1-0.9c0.3-0.4,0.5-0.9,0.6-1.5C69.1,107.7,69.2,107.2,69.2,106.5z M69.2,106.5L69.2,106.5L69.2,106.5z
		 M89.5,101.3c0,0.2-0.1,0.3-0.1,0.5c0,0.1,0,0.2-0.1,0.3c0,0.1,0,0.2-0.1,0.2c-0.1,0-0.1,0-0.2,0h-3.5v10.2c0,0.1,0,0.1-0.1,0.2
		c0,0-0.1,0-0.2,0.1c-0.1,0-0.3,0-0.4,0.1c-0.2,0-0.4,0-0.7,0c-0.3,0-0.5,0-0.7,0c-0.2-0.1-0.4-0.1-0.4-0.1
		c-0.1-0.1-0.2-0.1-0.3-0.1c0-0.1,0-0.1,0-0.2v-10.2h-3.6c0,0-0.1,0-0.2,0c0,0,0-0.1-0.1-0.2c0-0.1-0.1-0.2-0.1-0.3
		c0-0.2,0-0.3,0-0.5c0-0.2,0-0.3,0-0.5c0-0.1,0.1-0.2,0.1-0.3c0.1-0.1,0.1-0.2,0.1-0.2c0.1,0,0.2-0.1,0.2-0.1H89
		c0.1,0,0.1,0.1,0.2,0.1c0.1,0,0.1,0.1,0.1,0.2c0.1,0.1,0.1,0.2,0.1,0.3C89.4,101,89.5,101.1,89.5,101.3z M89.5,101.3L89.5,101.3
		L89.5,101.3z M104.3,111.8c0,0.2,0,0.4,0,0.5c0,0.1,0,0.2-0.1,0.3c0,0.1-0.1,0.1-0.1,0.2c-0.1,0-0.1,0-0.2,0h-7.1
		c-0.2,0-0.4,0-0.6-0.2c-0.1-0.1-0.2-0.3-0.2-0.6v-10.9c0-0.3,0.1-0.5,0.2-0.7c0.2-0.1,0.4-0.2,0.6-0.2h7.1l0.1,0.1
		c0.1,0,0.1,0.1,0.2,0.2c0,0.1,0,0.2,0.1,0.3c0,0.1,0,0.3,0,0.5c0,0.1,0,0.3,0,0.4c-0.1,0.2-0.1,0.2-0.1,0.3
		c-0.1,0.1-0.1,0.2-0.2,0.2l-0.1,0.1h-5.1v3h4.3c0,0,0.1,0.1,0.2,0.1l0.1,0.1c0,0.1,0.1,0.2,0.1,0.3c0,0.2,0,0.3,0,0.5
		c0,0.2,0,0.4,0,0.5c0,0.1-0.1,0.2-0.1,0.3c0,0.1-0.1,0.1-0.1,0.1c-0.1,0.1-0.2,0.1-0.2,0.1h-4.3v3.5h5.1c0.1,0,0.1,0,0.2,0.1
		l0.1,0.1c0.1,0.1,0.1,0.2,0.1,0.4C104.3,111.5,104.3,111.6,104.3,111.8z M104.3,111.8L104.3,111.8L104.3,111.8z M119.4,111.8
		c0,0.2,0,0.3,0,0.5c0,0.1,0,0.2-0.1,0.3c0,0.1-0.1,0.1-0.1,0.2c-0.1,0-0.1,0-0.2,0h-6.4c-0.3,0-0.5,0-0.6-0.2
		c-0.2-0.1-0.3-0.3-0.3-0.6v-11.4c0-0.1,0-0.1,0.1-0.2c0,0,0.1-0.1,0.2-0.1c0.1,0,0.3-0.1,0.5-0.1c0.1,0,0.4,0,0.7,0
		c0.2,0,0.5,0,0.6,0c0.2,0,0.4,0.1,0.5,0.1c0.1,0,0.2,0.1,0.2,0.1c0.1,0.1,0.1,0.1,0.1,0.2v10.1h4.4c0.1,0,0.1,0,0.2,0.1
		c0,0,0.1,0.1,0.1,0.2c0.1,0,0.1,0.2,0.1,0.3C119.4,111.4,119.4,111.6,119.4,111.8z"/>
	<rect x="108.9" y="52" class="st0" width="50.7" height="1.2"/>
	<rect x="0.6" y="52" class="st0" width="50.6" height="1.2"/>
	<rect x="38.9" y="93.6" class="st0" width="82.3" height="1.3"/>
</g>
</svg>
